<?xml version="1.0" encoding="UTF-8" standalone="no"?>
<!DOCTYPE svg PUBLIC "-//W3C//DTD SVG 1.1//EN" "http://www.w3.org/Graphics/SVG/1.1/DTD/svg11.dtd">
<svg width="100%" height="100%" viewBox="0 0 512 512" version="1.1" xmlns="http://www.w3.org/2000/svg" xmlns:xlink="http://www.w3.org/1999/xlink" xml:space="preserve" xmlns:serif="http://www.serif.com/" style="fill-rule:evenodd;clip-rule:evenodd;stroke-linejoin:round;stroke-miterlimit:2;">
    <g>
        <g>
            <g>
                <path d="M511.455,140.243L511.455,429.475C511.455,432.218 509.14,434.361 506.397,434.361L7.917,434.361C5.174,434.361 2.859,432.218 2.859,429.475L2.859,140.243L511.455,140.243Z" style="fill:rgb(235,129,71);fill-rule:nonzero;"/>
                <g>
                    <path d="M99.676,106.815L72.847,162.205L148.261,162.205L175.091,106.815L99.676,106.815Z" style="fill:rgb(250,250,251);fill-rule:nonzero;"/>
                    <path d="M40.063,106.811L33.89,119.67L33.89,119.755L28.147,131.586L23.947,140.243L23.175,141.701L18.289,151.902L13.317,162.189L13.317,162.274L2.43,162.274L2.43,106.811L40.063,106.811Z" style="fill:rgb(250,250,251);fill-rule:nonzero;"/>
                    <path d="M234.673,106.815L207.844,162.205L283.258,162.205L310.088,106.815L234.673,106.815Z" style="fill:rgb(250,250,251);fill-rule:nonzero;"/>
                    <path d="M477.837,162.205L511.387,162.205L511.387,106.815L504.667,106.815L477.837,162.205Z" style="fill:rgb(250,250,251);fill-rule:nonzero;"/>
                    <path d="M369.67,106.815L342.841,162.205L418.255,162.205L445.084,106.815L369.67,106.815Z" style="fill:rgb(250,250,251);fill-rule:nonzero;"/>
                    <path d="M40.094,106.815L13.265,162.205L72.847,162.205L99.676,106.815L40.094,106.815Z" style="fill:rgb(250,223,209);fill-rule:nonzero;"/>
                    <path d="M175.091,106.815L148.261,162.205L207.844,162.205L234.673,106.815L175.091,106.815Z" style="fill:rgb(250,223,209);fill-rule:nonzero;"/>
                    <path d="M310.088,106.815L283.258,162.205L342.841,162.205L369.67,106.815L310.088,106.815Z" style="fill:rgb(250,223,209);fill-rule:nonzero;"/>
                    <path d="M445.084,106.815L418.255,162.205L477.837,162.205L504.667,106.815L445.084,106.815Z" style="fill:rgb(250,223,209);fill-rule:nonzero;"/>
                </g>
                <g>
                    <g>
                        <rect x="172.986" y="250.867" width="4.806" height="68.479" style="fill:white;"/>
                    </g>
                    <g>
                        <rect x="336.526" y="250.867" width="4.806" height="68.479" style="fill:white;"/>
                    </g>
                </g>
                <g>
                    <rect x="59.871" y="331.36" width="394.574" height="4.806" style="fill:white;"/>
                </g>
                <g opacity="0.2">
                    <rect x="59.871" y="335.965" width="394.574" height="4.806" style="fill:white;"/>
                </g>
                <g opacity="0.2">
                    <rect x="59.871" y="378.815" width="394.574" height="4.806" style="fill:white;"/>
                </g>
                <g>
                    <rect x="59.871" y="373.408" width="394.574" height="4.806" style="fill:white;"/>
                </g>
                <g>
                    <path d="M505.345,55.749L512,54.819L510.023,41.087L505.345,55.749Z" style="fill:rgb(250,250,251);fill-rule:nonzero;"/>
                    <g>
                        <path d="M63.95,59.752L0,68.429L7.51,123.307L44.875,118.238L63.95,59.752Z" style="fill:rgb(250,250,251);fill-rule:nonzero;"/>
                        <path d="M197.708,41.577L178.677,100.124L129.301,106.811L103.926,110.24L105.041,106.811L122.957,51.777L197.708,41.577Z" style="fill:rgb(250,250,251);fill-rule:nonzero;"/>
                        <path d="M465.25,5.315L463.964,9.173L446.22,63.778L403.701,69.521L371.469,73.894L390.5,15.431L465.25,5.315Z" style="fill:rgb(250,250,251);fill-rule:nonzero;"/>
                        <path d="M331.522,23.488L312.406,81.952L237.655,92.067L256.771,33.604L331.522,23.488Z" style="fill:rgb(250,250,251);fill-rule:nonzero;"/>
                        <path d="M122.957,51.777L105.041,106.811L103.926,110.24L97.583,111.097L66.98,115.212L44.863,118.213L48.549,106.811L51.035,99.268L54.635,88.21L63.979,59.749L86.096,56.749L122.957,51.777Z" style="fill:rgb(250,223,209);fill-rule:nonzero;"/>
                        <path d="M256.771,33.604L237.655,92.067L178.677,100.124L197.708,41.577L256.771,33.604Z" style="fill:rgb(250,223,209);fill-rule:nonzero;"/>
                        <path d="M390.5,15.431L371.469,73.894L312.406,81.952L331.522,23.488L390.5,15.431Z" style="fill:rgb(250,223,209);fill-rule:nonzero;"/>
                        <path d="M509.998,41.062L509.998,41.148L509.227,43.462L505.198,55.806L446.22,63.778L463.964,9.173L465.25,5.315L468.251,4.887L497.739,0.858L504.34,0L505.541,8.658L509.998,41.062Z" style="fill:rgb(250,223,209);fill-rule:nonzero;"/>
                    </g>
                </g>
                <path d="M75.007,152.798L22.641,152.798C15.878,152.798 10.395,147.315 10.395,140.552L10.395,88.186C10.395,77.276 23.586,71.812 31.301,79.526L83.667,131.892C91.381,139.607 85.917,152.798 75.007,152.798Z" style="fill:rgb(205,137,101);fill-rule:nonzero;"/>
                <circle cx="27.109" cy="97.398" r="5.868" style="fill:rgb(250,250,251);"/>
                <circle cx="27.109" cy="137.378" r="5.868" style="fill:rgb(250,250,251);"/>
                <circle cx="65.073" cy="137.378" r="5.868" style="fill:rgb(250,250,251);"/>
            </g>
            <rect x="2.859" y="162.274" width="508.597" height="9.43" style="fill:rgb(29,30,30);fill-opacity:0.2;"/>
        </g>
        <g>
            <path d="M509.998,41.062L509.998,41.148L509.227,43.462L505.198,55.806L446.22,63.778L403.615,69.607L403.701,69.521L463.964,9.173L468.251,4.887L497.739,0.858L504.34,0L505.541,8.658L509.998,41.062Z" style="fill:rgb(29,30,30);fill-opacity:0.2;fill-rule:nonzero;"/>
            <path d="M511.387,106.815L366.37,106.815L38.813,434.372L506.432,434.372C509.173,434.372 511.431,432.195 511.431,429.454L511.431,140.228L511.387,140.228L511.387,106.815Z" style="fill:rgb(29,30,30);fill-opacity:0.2;fill-rule:nonzero;"/>
            <path d="M512,54.819L510.023,41.087L505.345,55.75L512,54.819Z" style="fill:rgb(29,30,30);fill-opacity:0.2;fill-rule:nonzero;"/>
        </g>
    </g>
</svg>
